<svg xmlns="http://www.w3.org/2000/svg" xmlns:xlink="http://www.w3.org/1999/xlink" xmlns:lucid="lucid" width="864.05" height="226"><g transform="translate(-1329.0170927600925 -489.7072558440087)" lucid:page-tab-id="O3AEdM~duQNO"><path d="M1349.02 536.37h817.06v144.67h-817.06z" stroke="#000" stroke-opacity="0" stroke-width="2" fill="#fff" fill-opacity="0"/><use xlink:href="#a" transform="matrix(1,0,0,1,1354.0170927600925,541.373922510675) translate(12.133333333333326 100.83333333333333)"/><path d="M1349.33 509.7h823.74v186h-823.74z" stroke="#000" stroke-opacity="0" stroke-width="2" fill="#fff" fill-opacity="0"/><use xlink:href="#b" transform="matrix(1,0,0,1,1354.3333333333333,514.7072558440087) translate(18.133333333333326 121.33333333333333)"/><defs><path d="M56-719h580c77 0 140 63 140 139v194c0 76-63 139-140 139-149 0-301 2-448 0V0H56v-719zm587 333v-194c0-4-3-7-7-7H195c-4 0-7 3-7 7v194c0 4 3 7 7 7h441c4 0 7-3 7-7" id="c"/><path d="M190-580h322v131H190c-4 0-7 3-7 7V0H52v-442c0-76 62-138 138-138" id="d"/><path d="M189-580h313c76 0 138 62 138 138v304C640-62 578 0 502 0H189C113 0 51-62 51-138v-304c0-76 62-138 138-138zm313 131H189c-4 0-7 3-7 7v304c0 4 3 7 7 7h313c4 0 7-3 7-7v-304c0-4-3-7-7-7" id="e"/><path d="M410-449H184v311c0 4 3 7 7 7h219V0H191C114 0 53-62 53-138v-632h131v190h226v131" id="f"/><path d="M774-588H195c-4 0-7 3-7 7v442c0 4 3 7 7 7h579V0H195C118 0 56-62 56-139v-442c0-77 62-139 139-139h579v132" id="g"/><path d="M661-720h132V0H661v-294H189V0H57v-720h132v294h472v-294" id="h"/><path d="M193-720h442c76 0 139 62 139 139v442C774-62 711 0 635 0H193C116 0 54-62 54-139v-442c0-77 62-139 139-139zm0 588h442c3 0 6-3 6-7v-442c0-4-3-7-6-7H193c-4 0-7 3-7 7v442c0 4 3 7 7 7" id="i"/><path d="M57 0v-720h132V0H57" id="j"/><path d="M775-580v194c-3 89-75 152-179 139L775-34V0H631L423-247H187V0H55v-719h580c77 0 140 63 140 139zM194-379h441c4 0 7-3 7-7v-194c0-4-3-7-7-7H194c-4 0-7 3-7 7v194c0 4 3 7 7 7" id="k"/><g id="a"><use transform="matrix(0.13333333333333333,0,0,0.13333333333333333,0,0)" xlink:href="#c"/><use transform="matrix(0.13333333333333333,0,0,0.13333333333333333,105.46666666666667,0)" xlink:href="#d"/><use transform="matrix(0.13333333333333333,0,0,0.13333333333333333,175.86666666666667,0)" xlink:href="#e"/><use transform="matrix(0.13333333333333333,0,0,0.13333333333333333,264.8,0)" xlink:href="#f"/><use transform="matrix(0.13333333333333333,0,0,0.13333333333333333,323.06666666666666,0)" xlink:href="#g"/><use transform="matrix(0.13333333333333333,0,0,0.13333333333333333,432.6666666666666,0)" xlink:href="#h"/><use transform="matrix(0.13333333333333333,0,0,0.13333333333333333,546.1333333333333,0)" xlink:href="#i"/><use transform="matrix(0.13333333333333333,0,0,0.13333333333333333,656.5333333333333,0)" xlink:href="#j"/><use transform="matrix(0.13333333333333333,0,0,0.13333333333333333,685.8666666666667,0)" xlink:href="#k"/></g><path fill="#c92d39" d="M56-719h580c77 0 140 63 140 139v194c0 76-63 139-140 139-149 0-301 2-448 0V0H56v-719zm587 333v-194c0-4-3-7-7-7H195c-4 0-7 3-7 7v194c0 4 3 7 7 7h441c4 0 7-3 7-7" id="l"/><path fill="#c92d39" d="M190-580h322v131H190c-4 0-7 3-7 7V0H52v-442c0-76 62-138 138-138" id="m"/><path fill="#c92d39" d="M189-580h313c76 0 138 62 138 138v304C640-62 578 0 502 0H189C113 0 51-62 51-138v-304c0-76 62-138 138-138zm313 131H189c-4 0-7 3-7 7v304c0 4 3 7 7 7h313c4 0 7-3 7-7v-304c0-4-3-7-7-7" id="n"/><path fill="#c92d39" d="M410-449H184v311c0 4 3 7 7 7h219V0H191C114 0 53-62 53-138v-632h131v190h226v131" id="o"/><path fill="#c92d39" d="M774-588H195c-4 0-7 3-7 7v442c0 4 3 7 7 7h579V0H195C118 0 56-62 56-139v-442c0-77 62-139 139-139h579v132" id="p"/><path fill="#c92d39" d="M661-720h132V0H661v-294H189V0H57v-720h132v294h472v-294" id="q"/><path fill="#c92d39" d="M193-720h442c76 0 139 62 139 139v442C774-62 711 0 635 0H193C116 0 54-62 54-139v-442c0-77 62-139 139-139zm0 588h442c3 0 6-3 6-7v-442c0-4-3-7-6-7H193c-4 0-7 3-7 7v442c0 4 3 7 7 7" id="r"/><path fill="#c92d39" d="M57 0v-720h132V0H57" id="s"/><path fill="#c92d39" d="M775-580v194c-3 89-75 152-179 139L775-34V0H631L423-247H187V0H55v-719h580c77 0 140 63 140 139zM194-379h441c4 0 7-3 7-7v-194c0-4-3-7-7-7H194c-4 0-7 3-7 7v194c0 4 3 7 7 7" id="t"/><g id="b"><use transform="matrix(0.13333333333333333,0,0,0.13333333333333333,0,0)" xlink:href="#l"/><use transform="matrix(0.13333333333333333,0,0,0.13333333333333333,105.46666666666667,0)" xlink:href="#m"/><use transform="matrix(0.13333333333333333,0,0,0.13333333333333333,175.86666666666667,0)" xlink:href="#n"/><use transform="matrix(0.13333333333333333,0,0,0.13333333333333333,264.8,0)" xlink:href="#o"/><use transform="matrix(0.13333333333333333,0,0,0.13333333333333333,323.06666666666666,0)" xlink:href="#p"/><use transform="matrix(0.13333333333333333,0,0,0.13333333333333333,432.6666666666666,0)" xlink:href="#q"/><use transform="matrix(0.13333333333333333,0,0,0.13333333333333333,546.1333333333333,0)" xlink:href="#r"/><use transform="matrix(0.13333333333333333,0,0,0.13333333333333333,656.5333333333333,0)" xlink:href="#s"/><use transform="matrix(0.13333333333333333,0,0,0.13333333333333333,685.8666666666667,0)" xlink:href="#t"/></g></defs></g></svg>